<svg width="200" height="146" viewBox="0 0 200 146" fill="none" xmlns="http://www.w3.org/2000/svg">
<path d="M190.352 22.1507C186.255 21.7652 182.613 24.7632 182.22 28.862C181.562 35.7389 176.773 41.3608 170.276 43.1889C169.82 43.3174 169.333 43.1619 169.038 42.7904C157.783 28.6042 140.394 19.5058 120.878 19.5058H111.739C111.339 19.5058 110.964 19.3128 110.732 18.9878L101.224 5.66562C98.5945 1.98166 93.1203 1.98166 90.491 5.66562L80.9828 18.9878C80.7508 19.3128 80.3762 19.5058 79.9766 19.5058H67.3903C63.52 19.5058 59.7341 19.8659 56.0622 20.5507C55.5888 20.639 55.1079 20.4495 54.8279 20.0574L44.6103 5.74141C41.9658 2.03634 36.451 2.06252 33.8416 5.79258L20.4831 30.7397C18.6558 34.1518 16.9812 37.644 15.464 41.2049C11.9437 49.467 9.28434 58.0701 7.5281 66.8774L7.20505 68.497C6.37654 72.5204 5.94022 76.6872 5.94022 80.9559C5.94022 114.894 33.4522 142.406 67.3899 142.406H108.282C110.334 142.406 112.303 141.59 113.754 140.139L178.847 75.0458C180.7 73.1927 181.499 70.5251 180.948 67.963C180.176 64.3767 179.089 60.9075 177.721 57.5841C177.482 57.0021 177.758 56.3349 178.335 56.0826C182.125 54.4232 185.592 52.0252 188.478 49.0088C193.345 43.9225 196.394 37.2717 197.064 30.2815C197.455 26.1839 194.451 22.5433 190.352 22.1507V22.1507Z" fill="#EAAADD"/>
<path d="M190.352 22.1507C186.255 21.7652 182.613 24.7632 182.22 28.862C181.562 35.7389 176.773 41.3608 170.276 43.1889C169.82 43.3174 169.333 43.1619 169.038 42.7904C157.783 28.6042 140.394 19.5058 120.878 19.5058H111.739C111.339 19.5058 110.964 19.3128 110.732 18.9878L101.224 5.66562C98.5945 1.98166 93.1203 1.98166 90.491 5.66562L88.3461 8.67108L93.4804 16.2714C94.8008 18.2257 96.9379 19.4949 99.2906 19.657C126.836 21.5562 149.385 41.6069 155.065 67.9364C155.62 70.5079 154.831 73.1864 152.971 75.0465L87.8781 140.139C86.427 141.591 84.4586 142.406 82.4063 142.406H108.282C110.334 142.406 112.303 141.591 113.754 140.139L178.847 75.0461C180.7 73.193 181.499 70.5255 180.948 67.9634C180.176 64.3771 179.089 60.9079 177.721 57.5845C177.482 57.0025 177.758 56.3353 178.335 56.083C182.125 54.4236 185.592 52.0256 188.478 49.0092C193.345 43.9229 196.394 37.2721 197.064 30.2819C197.455 26.1839 194.451 22.5433 190.352 22.1507V22.1507Z" fill="#E490D0"/>
<path d="M110.939 141.926C111.986 141.543 112.951 140.943 113.754 140.139L178.847 75.0461C179.841 74.052 180.526 72.8235 180.866 71.5036C175.419 69.7165 169.602 68.7462 163.557 68.7462C132.905 68.7462 108.057 93.5945 108.057 124.246C108.057 130.429 109.073 136.372 110.939 141.926Z" fill="#ECF4FF"/>
<path d="M167.659 68.8989C167.603 68.9579 167.55 69.0196 167.492 69.0774L108.21 128.359C108.557 133.069 109.491 137.615 110.939 141.926C111.986 141.543 112.951 140.943 113.754 140.14L178.847 75.0465C179.841 74.0524 180.526 72.8239 180.866 71.504C176.663 70.1247 172.238 69.2345 167.659 68.8989V68.8989Z" fill="#DDEAFB"/>
<path d="M8.84256 80.9559C8.84256 76.9614 9.24803 72.9669 10.0512 69.0646L10.3742 67.445C11.2465 63.0701 12.3539 58.7345 13.6816 54.4678C14.5621 54.2861 15.4589 54.1525 16.3703 54.0736C20.4269 53.7236 24.4089 54.4349 27.8858 56.1318C29.3253 56.8353 31.0636 56.2377 31.7663 54.797C32.4694 53.3572 31.8721 51.6193 30.4315 50.9166C26.0093 48.7572 20.9734 47.8486 15.8695 48.2916C15.8371 48.2943 15.805 48.2986 15.7722 48.3018C16.5105 46.2951 18.3328 41.8815 18.4324 41.651C21.4292 42.2787 24.1773 43.5041 26.4851 45.2631C27.7483 46.2291 29.5757 45.9959 30.5518 44.7139C31.5233 43.4393 31.2776 41.6186 30.0026 40.6471C26.1702 37.7264 21.4491 35.9397 16.3492 35.4807C11.2808 35.0229 6.2043 35.912 1.66682 38.0475C0.216433 38.7303 -0.405439 40.4592 0.27698 41.9092C0.959398 43.36 2.68908 43.9807 4.13868 43.2991C6.6957 42.0952 9.47225 41.394 12.3132 41.2159C11.1551 44.0061 10.089 46.8373 9.12186 49.7033C6.55273 50.576 4.14102 51.8096 1.97346 53.3799C0.675806 54.3205 0.385573 56.1349 1.3258 57.433C2.27228 58.7392 4.09376 59.0146 5.37891 58.0806C5.85781 57.7337 6.3539 57.4099 6.86249 57.1048C6.02734 60.1486 5.29766 63.2201 4.68126 66.3103L4.36212 67.9122C3.48321 72.1809 3.0379 76.5696 3.0379 80.9567C3.0379 94.8109 7.37304 108.01 15.575 119.126C16.1441 119.897 17.0222 120.305 17.9124 120.305C18.5109 120.305 19.1148 120.121 19.6331 119.738C20.923 118.787 21.1968 116.969 20.2452 115.68C12.7859 105.568 8.84256 93.5609 8.84256 80.9559V80.9559Z" fill="black"/>
<path d="M21.4847 28.8706C22.8983 29.628 24.6565 29.0952 25.4124 27.6823L36.3076 7.3359C37.0061 6.4152 38.0615 5.88669 39.2268 5.88122H39.2451C40.4529 5.88122 41.5467 6.44411 42.2486 7.4277L52.4662 21.7433C53.3966 23.0464 55.0169 23.6972 56.5947 23.4034C60.1376 22.7425 63.7696 22.4077 67.3907 22.4077H79.977C81.3098 22.4077 82.5684 21.7601 83.3453 20.6737L92.8535 7.35153C93.555 6.36872 94.6503 5.80466 95.8578 5.80466C97.0656 5.80466 98.1605 6.36833 98.862 7.35153L108.372 20.6757C109.147 21.7601 110.406 22.4077 111.739 22.4077H120.878C131.63 22.4077 142.142 25.3471 151.276 30.9081C151.747 31.1948 152.268 31.3315 152.782 31.3315C153.761 31.3315 154.718 30.8358 155.264 29.9381C156.097 28.569 155.663 26.7839 154.294 25.9503C144.25 19.8358 132.695 16.6034 120.878 16.6034H112.596L103.586 3.97889C101.808 1.48749 98.9191 0 95.8578 0C92.7968 0.000390623 89.9074 1.48789 88.1293 3.97928L79.1192 16.6034H67.3907C63.7692 16.6034 60.1372 16.9089 56.5771 17.5112L46.9728 4.05467C45.1928 1.56132 42.3061 0.0761714 39.2444 0.0761714C39.2291 0.0761714 39.2143 0.0761714 39.199 0.0761714C36.1202 0.0910151 33.2288 1.60585 31.4643 4.1285C31.3987 4.22264 31.3381 4.32029 31.2842 4.42224L20.2964 24.9421C19.5394 26.3553 20.0714 28.1139 21.4847 28.8706V28.8706Z" fill="black"/>
<path d="M197.63 22.9796C195.869 20.8456 193.383 19.5257 190.624 19.2617C184.942 18.7285 179.875 22.9093 179.332 28.5858C178.828 33.8542 175.428 38.244 170.553 40.0498C168.813 37.9389 166.929 35.9268 164.939 34.0573C163.771 32.9592 161.934 33.0167 160.837 34.1842C159.739 35.3522 159.797 37.1889 160.964 38.2862C163.041 40.2381 164.993 42.3608 166.765 44.5943C167.788 45.8842 169.475 46.4291 171.062 45.9826C178.825 43.7983 184.339 37.1862 185.109 29.1386C185.348 26.6425 187.578 24.8003 190.076 25.0394C192.575 25.2784 194.414 27.5065 194.175 30.0057C193.567 36.3499 190.8 42.3862 186.382 47.0029C183.771 49.7314 180.672 51.892 177.171 53.4252C175.162 54.3045 174.205 56.6662 175.038 58.6892C176.228 61.581 177.186 64.5829 177.895 67.6247C173.224 66.4435 168.418 65.8439 163.557 65.8439C131.354 65.8439 105.155 92.0429 105.155 124.246C105.155 129.427 105.834 134.544 107.175 139.504H67.3907C52.7799 139.504 38.7881 134.092 27.9925 124.265C26.8069 123.186 24.971 123.272 23.8929 124.457C22.8136 125.643 22.9003 127.478 24.0851 128.557C35.9518 139.359 51.331 145.308 67.3903 145.308H108.282C111.124 145.308 113.797 144.201 115.806 142.191L180.899 77.0981C183.466 74.5301 184.545 70.8872 183.784 67.3528C183.103 64.1919 182.176 61.0642 181.02 58.0326C184.607 56.2544 187.815 53.899 190.574 51.0162C195.89 45.4607 199.221 38.1955 199.952 30.5593C200.215 27.805 199.391 25.1136 197.63 22.9796V22.9796ZM112.579 137.211C111.506 132.988 110.959 128.644 110.959 124.247C110.959 95.2441 134.554 71.6481 163.557 71.6481C167.954 71.6481 172.298 72.1981 176.52 73.2696L171.635 78.1547C170.345 77.9301 169.044 77.7528 167.743 77.6372C166.151 77.4997 164.738 78.6746 164.596 80.2711C164.476 81.6215 165.303 82.8344 166.526 83.2633L122.669 127.121C122.603 126.166 122.567 125.204 122.567 124.247C122.567 123.838 122.573 123.432 122.585 123.026C122.632 121.424 121.372 120.087 119.77 120.04C118.183 119.996 116.831 121.253 116.783 122.855C116.769 123.317 116.763 123.781 116.763 124.247C116.763 125.844 116.844 127.453 117.005 129.031C117.106 130.02 117.694 130.841 118.506 131.284L112.579 137.211Z" fill="black"/>
<path d="M67.6525 44.0955C66.0497 44.0955 64.7505 45.3947 64.7505 46.9975V51.6662C63.8958 52.5349 62.7283 53.0427 61.4916 53.0427C59.9869 53.0427 58.5771 52.3006 57.7197 51.058C56.8099 49.7388 55.0033 49.4068 53.683 50.317C52.3639 51.2267 52.0322 53.0341 52.942 54.3537C54.8826 57.1673 58.0787 58.847 61.4916 58.847C63.7388 58.847 65.8896 58.115 67.6525 56.8142C69.415 58.115 71.5657 58.847 73.813 58.847C77.2262 58.847 80.4223 57.1669 82.3625 54.3537C83.2723 53.0341 82.9407 51.2267 81.6211 50.3174C80.302 49.4072 78.4938 49.7392 77.5848 51.0588C76.7278 52.3017 75.3177 53.0431 73.813 53.0431C72.5763 53.0431 71.4087 52.5357 70.5544 51.667V46.9978C70.5544 45.3943 69.2552 44.0955 67.6525 44.0955V44.0955Z" fill="black"/>
<path d="M41.2893 41.751C41.2893 43.8939 43.0264 45.631 45.1693 45.631C47.3123 45.631 49.0494 43.8939 49.0494 41.751C49.0494 39.608 47.3123 37.8709 45.1693 37.8709C43.0264 37.8709 41.2893 39.608 41.2893 41.751V41.751Z" fill="black"/>
<path d="M90.1355 45.631C92.2784 45.631 94.0156 43.8939 94.0156 41.751C94.0156 39.6081 92.2784 37.8709 90.1355 37.8709C87.9926 37.8709 86.2555 39.6081 86.2555 41.751C86.2555 43.8939 87.9926 45.631 90.1355 45.631Z" fill="black"/>
<path d="M119.435 48.2916C114.331 47.8486 109.295 48.7576 104.873 50.9165C103.432 51.6193 102.835 53.3572 103.538 54.797C104.241 56.2368 105.978 56.836 107.418 56.1318C110.895 54.4345 114.875 53.722 118.934 54.0736C122.991 54.4251 126.792 55.8103 129.924 58.0798C130.439 58.4528 131.035 58.6321 131.625 58.6321C132.523 58.6321 133.41 58.2157 133.977 57.4325C134.918 56.1345 134.628 54.32 133.33 53.3798C129.345 50.4927 124.54 48.7334 119.435 48.2916V48.2916Z" fill="black"/>
<path d="M135.026 41.9088C135.709 40.4588 135.087 38.7299 133.637 38.0475C129.099 35.9115 124.022 35.0244 118.955 35.4803C113.855 35.9393 109.133 37.726 105.301 40.6467C104.026 41.6181 103.78 43.4392 104.752 44.7138C105.323 45.4627 106.187 45.8564 107.062 45.8564C107.675 45.8564 108.294 45.6631 108.819 45.2623C111.78 43.0049 115.465 41.6213 119.475 41.2603C123.517 40.8971 127.559 41.601 131.164 43.2982C132.614 43.9799 134.343 43.3584 135.026 41.9088V41.9088Z" fill="black"/>
<path d="M121.182 112.422C122.654 112.953 124.353 112.176 124.884 110.65C125.482 108.955 126.201 107.281 127.019 105.677C127.748 104.249 127.182 102.502 125.754 101.773C124.326 101.044 122.578 101.611 121.85 103.038C120.915 104.871 120.094 106.783 119.41 108.721C118.878 110.232 119.671 111.889 121.182 112.422V112.422Z" fill="black"/>
<path d="M148.461 85.9324C148.793 85.9324 149.131 85.875 149.461 85.7535C151.152 85.1324 152.9 84.6191 154.657 84.2289C156.222 83.8812 157.208 82.3312 156.861 80.7668C156.513 79.2024 154.962 78.2152 153.399 78.5633C151.39 79.0094 149.391 79.5957 147.459 80.3055C145.955 80.8582 145.183 82.5262 145.736 84.0304C146.168 85.2043 147.279 85.9324 148.461 85.9324V85.9324Z" fill="black"/>
<path d="M132.334 96.3296C133.083 96.3296 133.831 96.0413 134.399 95.4663C135.665 94.1839 137.028 92.9734 138.45 91.8679C139.715 90.8843 139.944 89.0613 138.96 87.7957C137.977 86.5297 136.153 86.3019 134.888 87.2851C133.266 88.5457 131.712 89.9265 130.268 91.389C129.142 92.5292 129.154 94.3671 130.295 95.4929C130.86 96.0511 131.597 96.3296 132.334 96.3296Z" fill="black"/>
</svg>
