<?xml version="1.0" encoding="UTF-8"?>
<svg xmlns="http://www.w3.org/2000/svg" xmlns:xlink="http://www.w3.org/1999/xlink" width="14pt" height="14pt" viewBox="0 0 14 14" version="1.1">
<g id="surface1">
<path style=" stroke:none;fill-rule:nonzero;fill:rgb(0%,0%,0%);fill-opacity:1;" d="M 10.0625 14 L 1.605469 14 C 0.71875 14 0 13.28125 0 12.394531 L 0 5.6875 C 0 4.800781 0.71875 4.082031 1.605469 4.082031 L 10.0625 4.082031 C 10.949219 4.082031 11.667969 4.800781 11.667969 5.6875 L 11.667969 12.394531 C 11.667969 13.28125 10.949219 14 10.0625 14 Z M 1.605469 4.957031 C 1.203125 4.957031 0.875 5.285156 0.875 5.6875 L 0.875 12.394531 C 0.875 12.796875 1.203125 13.125 1.605469 13.125 L 10.0625 13.125 C 10.464844 13.125 10.792969 12.796875 10.792969 12.394531 L 10.792969 5.6875 C 10.792969 5.285156 10.464844 4.957031 10.0625 4.957031 Z M 1.605469 4.957031 "/>
<path style=" stroke:none;fill-rule:nonzero;fill:rgb(0%,0%,0%);fill-opacity:1;" d="M 11.230469 7 L 0.4375 7 C 0.195312 7 0 6.804688 0 6.5625 C 0 6.320312 0.195312 6.125 0.4375 6.125 L 11.230469 6.125 C 11.46875 6.125 11.667969 6.320312 11.667969 6.5625 C 11.667969 6.804688 11.46875 7 11.230469 7 Z M 11.230469 7 "/>
<path style=" stroke:none;fill-rule:nonzero;fill:rgb(0%,0%,0%);fill-opacity:1;" d="M 13.5625 9.917969 C 13.320312 9.917969 13.125 9.71875 13.125 9.480469 L 13.125 1.605469 C 13.125 1.203125 12.796875 0.875 12.394531 0.875 L 3.9375 0.875 C 3.535156 0.875 3.207031 1.203125 3.207031 1.605469 L 3.207031 2.480469 C 3.207031 2.71875 3.011719 2.917969 2.769531 2.917969 C 2.53125 2.917969 2.332031 2.71875 2.332031 2.480469 L 2.332031 1.605469 C 2.332031 0.71875 3.050781 0 3.9375 0 L 12.394531 0 C 13.28125 0 14 0.71875 14 1.605469 L 14 9.480469 C 14 9.71875 13.804688 9.917969 13.5625 9.917969 Z M 13.5625 9.917969 "/>
<path style=" stroke:none;fill-rule:nonzero;fill:rgb(0%,0%,0%);fill-opacity:1;" d="M 13.5625 2.917969 L 2.769531 2.917969 C 2.53125 2.917969 2.332031 2.71875 2.332031 2.480469 C 2.332031 2.238281 2.53125 2.042969 2.769531 2.042969 L 13.5625 2.042969 C 13.804688 2.042969 14 2.238281 14 2.480469 C 14 2.71875 13.804688 2.917969 13.5625 2.917969 Z M 13.5625 2.917969 "/>
</g>
</svg>
