<?xml version="1.0"?>
<svg xmlns="http://www.w3.org/2000/svg" id="_x31__x2C_5" enable-background="new 0 0 24 24" height="512px" viewBox="0 0 24 24" width="512px" class="hovered-paths"><g><g><path d="m17.25 24h-14.5c-1.517 0-2.75-1.233-2.75-2.75v-11.5c0-1.517 1.233-2.75 2.75-2.75h14.5c1.517 0 2.75 1.233 2.75 2.75v11.5c0 1.517-1.233 2.75-2.75 2.75zm-14.5-15.5c-.689 0-1.25.561-1.25 1.25v11.5c0 .689.561 1.25 1.25 1.25h14.5c.689 0 1.25-.561 1.25-1.25v-11.5c0-.689-.561-1.25-1.25-1.25z" data-original="#000000" class="hovered-path active-path" data-old_color="#000000" fill="#ACACAC"/></g><g><path d="m19.25 12h-18.5c-.414 0-.75-.336-.75-.75s.336-.75.75-.75h18.5c.414 0 .75.336.75.75s-.336.75-.75.75z" data-original="#000000" class="hovered-path active-path" data-old_color="#000000" fill="#ACACAC"/></g><g><path d="m23.25 17c-.414 0-.75-.336-.75-.75v-13.5c0-.689-.561-1.25-1.25-1.25h-14.5c-.689 0-1.25.561-1.25 1.25v1.5c0 .414-.336.75-.75.75s-.75-.336-.75-.75v-1.5c0-1.517 1.233-2.75 2.75-2.75h14.5c1.517 0 2.75 1.233 2.75 2.75v13.5c0 .414-.336.75-.75.75z" data-original="#000000" class="hovered-path active-path" data-old_color="#000000" fill="#ACACAC"/></g><g><path d="m23.25 5h-18.5c-.414 0-.75-.336-.75-.75s.336-.75.75-.75h18.5c.414 0 .75.336.75.75s-.336.75-.75.75z" data-original="#000000" class="hovered-path active-path" data-old_color="#000000" fill="#ACACAC"/></g></g> </svg>
